{"title":"Star Wars Rebels S02E15 The Honorable One 1080P WEB-DL DD5 1 H 2","uid":13676011,"size":918523687,"categoryP":"video","categoryS":"hd___tv_shows","magnet":"?xt=urn:btih:11bc3b524ee31d7c61bdf672b61f50af73f92078&amp;dn=Star+Wars+Rebels+S02E15+The+Honorable+One+1080P+WEB-DL+DD5+1+H+2&amp;tr=udp%3A%2F%2Ftracker.leechers-paradise.org%3A6969&amp;tr=udp%3A%2F%2Fzer0day.ch%3A1337&amp;tr=udp%3A%2F%2Fopen.demonii.com%3A1337&amp;tr=udp%3A%2F%2Ftracker.coppersurfer.tk%3A6969&amp;tr=udp%3A%2F%2Fexodus.desync.com%3A6969","seeders":6,"leechers":2,"uploader":"jmanwf","files":2,"time":1456406945,"description":"After a failed Imperial ambush strands Zeb and Agent Kallus on an isolated ice planet, they must decide to work together or face certain death.\r\n\r\n\r\nVideo\r\nID : 2\r\nFormat : AVC\r\nFormat/Info : Advanced Video Codec\r\nFormat profile :   \r\nFormat settings, CABAC : Yes\r\nFormat settings, ReFrames : 4 frames\r\nCodec ID : avc1\r\nCodec ID/Info : Advanced Video Coding\r\nDuration : 22mn 7s\r\nBit rate : 5 021 Kbps\r\nWidth : 1 920 pixels\r\nHeight : 1 080 pixels\r\nDisplay aspect ratio : 16:9\r\nFrame rate mode : Constant\r\nFrame rate : 23.976 fps\r\nColor space : YUV\r\nChroma subsampling : 4:2:0\r\nBit depth : 8 bits\r\nScan type : Progressive\r\nBits/(Pixel*Frame) : 0.101\r\nStream size : 794 MiB (91%)\r\nLanguage : English\r\nEncoded date : UTC 2016-02-25 09:43:21\r\nTagged date : UTC 2016-02-25 09:45:37\r\nColor range : Limited\r\nColor primaries : BT.709\r\nTransfer characteristics : BT.709\r\nMatrix coefficients : BT.709\r\n\r\nAudio #1\r\nID : 1\r\nFormat : AAC\r\nFormat/Info : Advanced Audio Codec\r\nFormat profile : LC\r\nCodec ID : 40\r\nDuration : 22mn 7s\r\nBit rate mode : Variable\r\nBit rate : 128 Kbps\r\nMaximum bit rate : 175 Kbps\r\nChannel(s) : 2 channels\r\nChannel positions : Front: L R\r\nSampling rate : 48.0 KHz\r\nCompression mode : Lossy\r\nStream size : 20.2 MiB (2%)\r\nLanguage : English\r\nEncoded date : UTC 2016-02-25 09:43:21\r\nTagged date : UTC 2016-02-25 09:45:37\r\n\r\nAudio #2\r\nID : 3\r\nFormat : AC-3\r\nFormat/Info : Audio Coding 3\r\nMode extension : CM (complete main)\r\nFormat settings, Endianness : Big\r\nCodec ID : ac-3\r\nDuration : 22mn 7s\r\nBit rate mode : Constant\r\nBit rate : 384 Kbps\r\nChannel(s) : 6 channels\r\nChannel positions : Front: L C R, Side: L R, LFE\r\nSampling rate : 48.0 KHz\r\nBit depth : 16 bits\r\nCompression mode : Lossy\r\nStream size : 60.7 MiB (7%)\r\nLanguage : English\r\nEncoded date : UTC 2016-02-25 09:43:21\r\nTagged date : UTC 2016-02-25 09:45:37\r\n\r\nText\r\nID : 4-CC1\r\nFormat : EIA-608\r\nMuxing mode : Final Cut\r\nCodec ID : c608\r\nDuration : 21mn 6s\r\nBit rate mode : Constant\r\nStream size : 0.00 Byte (0%)\r\nLanguage : English\r\nEncoded date : UTC 2016-02-25 09:43:21\r\nTagged date : UTC 2016-02-25 09:43:25","torrent":{"xt":"urn:btih:11bc3b524ee31d7c61bdf672b61f50af73f92078","amp;dn":"Star+Wars+Rebels+S02E15+The+Honorable+One+1080P+WEB-DL+DD5+1+H+2","amp;tr":["udp%3A%2F%2Ftracker.leechers-paradise.org%3A6969","udp%3A%2F%2Fzer0day.ch%3A1337","udp%3A%2F%2Fopen.demonii.com%3A1337","udp%3A%2F%2Ftracker.coppersurfer.tk%3A6969","udp%3A%2F%2Fexodus.desync.com%3A6969"],"infoHash":"11bc3b524ee31d7c61bdf672b61f50af73f92078","infoHashBuffer":{"type":"Buffer","data":[17,188,59,82,78,227,29,124,97,189,246,114,182,31,80,175,115,249,32,120]},"announce":[],"urlList":[]}}